<?xml version="1.0" encoding="UTF-8"?>
<!-- Created with Inkscape (http://www.inkscape.org/) -->
<svg width="48" height="48" version="1.1" viewBox="0 0 24 24" xml:space="preserve" xmlns="http://www.w3.org/2000/svg" xmlns:cc="http://creativecommons.org/ns#" xmlns:dc="http://purl.org/dc/elements/1.1/" xmlns:rdf="http://www.w3.org/1999/02/22-rdf-syntax-ns#" xmlns:xlink="http://www.w3.org/1999/xlink"><title>Ludens Icon</title><defs><linearGradient id="linearGradient98" x1="9.486" x2="12.153" y1="17.744" y2="17.744" gradientUnits="userSpaceOnUse"><stop stop-color="#81d0fb" offset="0"/><stop stop-color="#7c86f9" offset="1"/></linearGradient><linearGradient id="linearGradient100" x1="9.486" x2="14.76" y1="17.744" y2="17.744" gradientUnits="userSpaceOnUse"><stop stop-color="#81d0fb" offset=".43297"/><stop stop-color="#c461fa" offset="1"/></linearGradient><linearGradient id="linearGradient103" x1="9.4483" x2="14.795" y1="17.009" y2="17.009" gradientUnits="userSpaceOnUse"><stop stop-color="#81d0fb" offset="0"/><stop stop-color="#c461fa" offset="1"/></linearGradient><linearGradient id="linearGradient105" x1="9.4483" x2="14.795" y1="17.008" y2="17.008" gradientUnits="userSpaceOnUse"><stop stop-color="#81d0fb" offset="0"/><stop stop-color="#c461fa" offset=".71868"/></linearGradient><linearGradient id="linearGradient108" x1="9.4483" x2="14.795" y1="17.009" y2="17.009" gradientUnits="userSpaceOnUse"><stop stop-color="#81d0fb" offset=".26593"/><stop stop-color="#c461fa" offset="1"/></linearGradient></defs><g stroke="#fff" stroke-miterlimit="3" stroke-width=".075"><path transform="matrix(1.6732 0 0 1.7277 -12.635 -13.493)" d="m12.116 19.996v-3.0078l-2.5922-1.4966v3.0011z" fill="url(#linearGradient98)"/><path transform="matrix(1.6732 0 0 1.7277 -12.64 -18.671)" d="m12.116 19.996v-3.0078l-2.5922-1.4966v3.0011zm2.6071-4.4991-2.6049 1.5039-1e-6 2.9932 2.5991-1.5006z" fill="url(#linearGradient100)"/><path transform="matrix(1.6732 0 0 1.7277 -12.622 -23.864)" d="m12.116 19.996v-3.0078l-2.5922-1.4966v3.0011zm2.6071-4.4991-2.6049 1.5039-1e-6 2.9932 2.5991-1.5006zm-5.1993-0.0041 2.6049 1.5039 2.5922-1.4966-2.5991-1.5006z" fill="url(#linearGradient103)"/><path transform="matrix(1.6732 0 0 1.7277 -3.9434 -13.494)" d="m14.723 15.497-2.6049 1.5039-1e-6 2.9932 2.5991-1.5006zm-5.1993-0.0041 2.6049 1.5039 2.5922-1.4966-2.5991-1.5006z" fill="url(#linearGradient105)"/><path transform="matrix(1.6732 0 0 1.7277 -8.2971 -10.911)" d="m12.116 19.996v-3.0078l-2.5922-1.4966v3.0011zm2.6071-4.4991-2.6049 1.5039-1e-6 2.9932 2.5991-1.5006zm-5.1993-0.0041 2.6049 1.5039 2.5922-1.4966-2.5991-1.5006z" fill="url(#linearGradient108)"/></g><metadata><rdf:RDF><cc:Work rdf:about=""><dc:title>Ludens Icon</dc:title></cc:Work></rdf:RDF></metadata></svg>
